<svg xmlns="http://www.w3.org/2000/svg" aria-hidden="true" style="position:absolute;width:0;height:0;overflow:hidden"><defs>
<symbol id="icon-Mastercard" viewBox="0 0 49 32"><path fill="#fafafa" d="M6.095.762h36.571a5.333 5.333 0 0 1 5.333 5.333v19.81a5.333 5.333 0 0 1-5.333 5.333H6.095a5.333 5.333 0 0 1-5.333-5.333V6.095A5.333 5.333 0 0 1 6.095.762z" 
style="fill:var(--color1, #fafafa)"/><path fill="none" stroke="#fafafa" stroke-width="1.524" d="M6.095.762h36.571a5.333 5.333 0 0 1 5.333 5.333v19.81a5.333 5.333 0 0 1-5.333 5.333H6.095a5.333 5.333 0 0 1-5.333-5.333V6.095A5.333 5.333 0 0 1 6.095.762z" 
style="stroke:var(--color1, #fafafa)"/><path fill="#ed0006" d="M24.381 23.29a10.302 10.302 0 0 1-6.578 2.345c-5.601 0-10.141-4.396-10.141-9.818s4.54-9.818 10.141-9.818c2.51 0 4.807.883 6.578 2.345a10.302 10.302 0 0 1 6.578-2.345c5.601 0 10.141 4.395 10.141 9.818s-4.54 9.818-10.141 9.818c-2.51 0-4.807-.883-6.578-2.345z" 
style="fill:var(--color2, #ed0006)"/><path fill="#f9a000" d="M24.381 23.29c2.18-1.801 3.563-4.48 3.563-7.472s-1.383-5.672-3.563-7.472a10.302 10.302 0 0 1 6.578-2.345c5.601 0 10.141 4.395 10.141 9.818s-4.54 9.818-10.141 9.818c-2.51 0-4.807-.883-6.578-2.345z" 
style="fill:var(--color3, #f9a000)"/><path fill="#ff5e00" d="M24.381 23.29c2.18-1.801 3.563-4.48 3.563-7.472s-1.383-5.671-3.563-7.472c-2.18 1.801-3.563 4.48-3.563 7.472s1.383 5.672 3.563 7.472z" 
style="fill:var(--color4, #ff5e00)"/></symbol>
<symbol id="icon-Frame" viewBox="0 0 40 32"><path fill="gold" d="M40.209.495H.307V30.19h39.902V.495z" style="fill:var(--color5, #ffd700)"/>
<path fill="#0057b7" d="M.307.495h39.902v14.847H.307V.495z" style="fill:var(--color6, #0057b7)"/></symbol>
<symbol id="icon-fi-rr-angle-small-left" viewBox="0 0 32 32"><path fill="#fd9222" d="M16.947 17.867a1.334 1.334 0 0 1-1.894 0l-6.107-6.12a1.334 1.334 0 1 0-1.894 1.88l6.12 6.12a4.001 4.001 0 0 0 5.654 0l6.12-6.12a1.337 1.337 0 0 0-.434-2.172 1.331 1.331 0 0 0-1.46.292l-6.107 6.12z" 
style="fill:var(--color7, #fd9222)"/>
</symbol></defs></svg>